# AST/ASF file generated using VICON BodyLanguage
# -----------------------------------------------
:version 1.10
:name VICON
:units
  mass 1.0
  length 0.45
  angle deg
:documentation
   .ast/.asf automatically generated from VICON data using
   VICON BodyBuilder and BodyLanguage model FoxedUp or BRILLIANT.MOD
:root
   order TX TY TZ RX RY RZ
   axis XYZ
   position 0 0 0  
   orientation 0 0 0 
:bonedata
  begin
     id 1 
     name lhipjoint
     direction 0.541323 -0.757556 0.364798 
     length 2.47576 
     axis 0 0 0  XYZ
  end
  begin
     id 2 
     name lfemur
     direction 0.34202 -0.939693 0  
     length 7.46493  
     axis 0 0 20  XYZ
    dof rx ry rz
    limits (-160.0 20.0)
           (-70.0 70.0)
           (-60.0 70.0)
  end
  begin
     id 3 
     name ltibia
     direction 0.34202 -0.939693 0   
     length 7.73805   
     axis 0 0 20   XYZ
    dof rx
    limits (-10.0 170.0)
  end
  begin
     id 4 
     name lfoot
     direction 0.107174 -0.294458 0.949636   
     length 2.25864   
     axis -90 7.62852e-016 20   XYZ
    dof rx rz
    limits (-45.0 90.0)
           (-70.0 20.0)
  end
  begin
     id 5 
     name ltoes
     direction 1.53606e-011 -4.21934e-011 1   
     length 1.12451   
     axis -90 7.62852e-016 20   XYZ
    dof rx
    limits (-90.0 20.0)
  end
  begin
     id 6 
     name rhipjoint
     direction -0.524745 -0.766967 0.36933   
     length 2.44538  
     axis 0 0 0  XYZ 
  end
  begin
     id 7 
     name rfemur
     direction -0.34202 -0.939693 0   
     length 7.61604   
     axis 0 0 -20   XYZ
    dof rx ry rz
    limits (-160.0 20.0)
           (-70.0 70.0)
           (-70.0 60.0)
  end
  begin
     id 8 
     name rtibia
     direction -0.34202 -0.939693 0   
     length 7.61056   
     axis 0 0 -20   XYZ
    dof rx
    limits (-10.0 170.0)
 end
 begin
     id 9 
     name rfoot
     direction -0.12616 -0.346623 0.929482   
     length 2.46372  
     axis -90 -7.62852e-016 -20   XYZ
    dof rx rz
    limits (-45.0 90.0)
           (-20.0 70.0)
  end
  begin
     id 10 
     name rtoes
     direction -1.53531e-011 -4.22004e-011 1   
     length 1.21611   
     axis -90 -7.62852e-016 -20   XYZ
    dof rx
    limits (-90.0 20.0)
  end
  begin
     id 11 
     name lowerback
     direction -0.000778023 0.997293 -0.0735223   
     length 2.06139   
     axis 0 0 0   XYZ
    dof rx ry rz
    limits (-20.0 45.0)
           (-30.0 30.0)
           (-30.0 30.0)
  end
  begin
     id 12 
     name upperback
     direction 0.0222598 0.999722 -0.0078355   
     length 2.06383   
     axis 0 0 0   XYZ
    dof rx ry rz
    limits (-20.0 45.0)
           (-30.0 30.0)
           (-30.0 30.0)
  end
  begin
     id 13 
     name thorax
     direction 0.0219654 0.999405 0.0265994   
     length 2.07163   
     axis 0 0 0   XYZ
    dof rx ry rz
    limits (-20.0 45.0)
           (-30.0 30.0)
           (-30.0 30.0)
  end
  begin
     id 14 
     name lowerneck
     direction 0.0213282 0.988147 0.15202   
     length 1.75969   
     axis 0 0 0   XYZ
    dof rx ry rz
    limits (-20.0 45.0)
           (-30.0 30.0)
           (-30.0 30.0)
  end
  begin
     id 15 
     name upperneck
     direction -0.0546456 0.982624 -0.177379   
     length 1.79244   
     axis 0 0 0   XYZ
    dof rx ry rz
    limits (-20.0 45.0)
           (-30.0 30.0)
           (-30.0 30.0)
  end
  begin
     id 16
     name head
     direction -0.0199987 0.996855 -0.076686  
     length 1.80555  
     axis 0 0 0   XYZ
    dof rx ry rz
    limits (-20.0 45.0)
           (-30.0 30.0)
           (-30.0 30.0)
  end
  begin
     id 17 
     name lclavicle
     direction 0.929565 0.363219 -0.063096  
     length 3.55722  
     axis 0 0 0   XYZ
    dof ry rz
    limits (-20.0 10.0)
           (0.0 20.0)
  end
  begin
     id 18 
     name lhumerus
     direction 1 -4.48993e-011 -2.36203e-027   
     length 4.92785   
     axis 180 -30 -90   XYZ
    dof rx ry rz
    limits (-60.0 90.0)
           (-90.0 90.0)
           (-90.0 90.0)
  end
  begin
     id 19
     name lradius
     direction 1 -4.48947e-011 2.02997e-027   
     length 3.44052   
     axis 180 -30 -90   XYZ
    dof rx
    limits (-10.0 170.0)
  end
  begin
     id 20
     name lwrist
     direction 1 -4.48962e-011 1.45991e-027   
     length 1.72026   
     axis 1.49639e-024 90 90   XYZ
    dof ry
    limits (-180.0 0.0)
 end
  begin
     id 21 
     name lhand
     direction 1 -4.48984e-011 2.91906e-027   
     length 0.654326   
     axis -1.863e-015 90 90   XYZ
    dof rx rz
    limits (-90.0 90.0)
           (-45.0 45.0)
  end
  begin
     id 22 
     name lfingers
     direction 1 -4.48961e-011 5.83968e-027   
     length 0.527534   
     axis -3.72598e-015 90 90   XYZ
    dof rx
    limits (0.0 90.0)
  end
  begin
     id 23
     name lthumb
     direction 0.707107 -6.34963e-011 0.707107   
     length 0.757437   
     axis -90 45 -6.68868e-015   XYZ
    dof rx rz
    limits (-45.0 45.0)
           (-45.0 45.0)
  end
  begin
     id 24 
     name rclavicle
     direction -0.902944 0.422599 -0.0781198   
     length 3.54432  
     axis 0 0 0   XYZ 
    dof ry rz
    limits (-10.0 20.0)
           (-20.0 0.0)
  end
  begin
     id 25 
     name rhumerus
     direction -1 -4.48953e-011 -4.75835e-028  
     length 5.09181   
     axis 180 30 90   XYZ
    dof rx ry rz
    limits (-90.0 60.0)
           (-90.0 90.0)
           (-90.0 90.0)
  end
  begin
     id 26 
     name rradius
     direction -1 -4.48986e-011 -3.25889e-027   
     length 3.49865   
     axis 180 30 90   XYZ
    dof rx
    limits (-10.0 170.0)
  end
  begin
     id 27 
     name rwrist
     direction -1 -4.48963e-011 1.45989e-027   
     length 1.74933   
     axis 1.49639e-024 -90 -90   XYZ
    dof ry
    limits (-180.0 0.0)
  end
  begin
     id 28
     name rhand
     direction -1 -4.49003e-011 2.91844e-027   
     length 0.66641   
     axis -1.863e-015 -90 -90   XYZ
    dof rx rz
    limits (-90.0 90.0)
           (-45.0 45.0)
  end
  begin
     id 29
     name rfingers
     direction -1 -4.48973e-011 5.83886e-027   
     length 0.537277   
     axis -3.72598e-015 -90 -90   XYZ
    dof rx
    limits (0.0 90.0)
  end
  begin
     id 30
     name rthumb
     direction -0.707107 -6.34976e-011 0.707107   
     length 0.771425   
     axis -90 -45 6.68868e-015   XYZ
    dof rx rz
    limits (-45.0 45.0)
           (-45.0 45.0)
  end
:hierarchy
  begin
    root lhipjoint rhipjoint lowerback
    lhipjoint lfemur
    lfemur ltibia
    ltibia lfoot
    lfoot ltoes
    rhipjoint rfemur
    rfemur rtibia
    rtibia rfoot
    rfoot rtoes
    lowerback upperback
    upperback thorax
    thorax lowerneck lclavicle rclavicle
    lowerneck upperneck
    upperneck head
    lclavicle lhumerus
    lhumerus lradius
    lradius lwrist
    lwrist lhand lthumb
    lhand lfingers
    rclavicle rhumerus
    rhumerus rradius
    rradius rwrist
    rwrist rhand rthumb
    rhand rfingers
  end

#!OML:ASF H:\LiuWeirdWalks\Patient Classification 1\Patient 1\Session 1\male.ASF
:FULLY-SPECIFIED
:DEGREES
17
root -0.526246 17.861 -29.6419 2.57437 1.81617 -1.20522
lowerback 3.05533 1.07826 -0.0130845
upperback -3.42057 1.51017 1.40556
thorax -5.29091 0.780178 1.34815
lowerneck -12.4716 0.55471 8.94099
upperneck 20.1974 0.684088 -8.4426
head 8.36309 0.159819 -4.28407
rclavicle -1.82261e-014 6.95746e-015
rhumerus -42.6143 -10.3764 -75.9749
rradius 29.299
rwrist -6.66833
rhand -16.7452 -3.58862
rfingers 7.12502
rthumb 9.48124 -33.3553
lclavicle -1.82261e-014 6.95746e-015
lhumerus -40.2433 -3.92859 86.4403
lradius 29.9982
lwrist 9.28285
lhand -12.2631 0.463795
lfingers 7.12502
lthumb 13.8034 29.9858
rfemur -9.47253 -2.69588 20.6108
rtibia 31.778
rfoot -16.3558 -22.1501
rtoes -2.60499
lfemur -8.17479 -1.90493 -16.4999
ltibia 27.6002
lfoot -12.7161 18.3204
ltoes -8.29081
18
root -0.524463 17.8602 -29.6312 2.58668 1.87497 -1.2115
lowerback 3.01652 1.06535 -0.0130861
upperback -3.44009 1.49297 1.40772
thorax -5.2888 0.771797 1.35227
lowerneck -12.4085 0.564999 8.98306
upperneck 20.1584 0.69999 -8.47493
head 8.34 0.168254 -4.29896
rclavicle -2.93704e-014 7.95139e-016
rhumerus -42.5805 -10.2254 -76.0429
rradius 29.4793
rwrist -6.83245
rhand -16.8175 -3.691
rfingers 7.12502
rthumb 9.4114 -33.4609
lclavicle -2.93704e-014 7.95139e-016
lhumerus -40.3544 -3.98466 86.5527
lradius 29.9508
lwrist 9.21104
lhand -12.2272 0.274019
lfingers 7.12502
lthumb 13.838 29.7937
rfemur -9.43945 -2.74293 20.6117
rtibia 31.7729
rfoot -16.3693 -22.167
rtoes -2.65583
lfemur -8.16211 -1.93081 -16.4976
ltibia 27.6081
lfoot -12.7549 18.3047
ltoes -8.30271
19
root -0.523404 17.8595 -29.6213 2.60461 1.94893 -1.23451
lowerback 2.97572 1.04788 -0.00231871
upperback -3.43574 1.47025 1.41747
thorax -5.26034 0.760287 1.35882
lowerneck -12.4374 0.562482 8.95933
upperneck 20.158 0.69608 -8.46056
head 8.34477 0.165492 -4.29064
rclavicle 9.25591e-015 1.98785e-015
rhumerus -42.4939 -10.0869 -76.1166
rradius 29.6544
rwrist -6.99971
rhand -16.8831 -3.76906
rfingers 7.12502
rthumb 9.34816 -33.5418
lclavicle 9.25591e-015 1.98785e-015
lhumerus -40.3971 -4.05656 86.6723
lradius 29.8832
lwrist 9.12238
lhand -12.243 0.101671
lfingers 7.12502
lthumb 13.8228 29.6224
rfemur -9.41427 -2.78135 20.638
rtibia 31.7687
rfoot -16.3941 -22.2032
rtoes -2.68298
lfemur -8.16387 -1.94721 -16.4695
ltibia 27.6167
lfoot -12.7894 18.2644
ltoes -8.32311
20
root -0.522441 17.8588 -29.6113 2.62926 2.01066 -1.25642
lowerback 2.92868 1.03922 0.00734323
upperback -3.43544 1.45912 1.42426
thorax -5.2328 0.754522 1.36211
lowerneck -12.4624 0.551538 8.9306
upperneck 20.1722 0.681769 -8.44267
head 8.35265 0.157966 -4.28172
rclavicle -1.98536e-014 -2.98177e-015
rhumerus -42.422 -9.96314 -76.1838
rradius 29.8278
rwrist -7.16451
rhand -16.9497 -3.81555
rfingers 7.12502
rthumb 9.28384 -33.5911
lclavicle -1.98536e-014 -2.98177e-015
lhumerus -40.4357 -4.17578 86.8093
lradius 29.8019
lwrist 9.03545
lhand -12.3043 -0.0331925
lfingers 7.12502
lthumb 13.7637 29.4915
rfemur -9.39904 -2.81023 20.6635
rtibia 31.7674
rfoot -16.4267 -22.2366
rtoes -2.68907
lfemur -8.17193 -1.95589 -16.4418
ltibia 27.6223
lfoot -12.8194 18.2263
ltoes -8.3412
21
root -0.521438 17.858 -29.6007 2.64912 2.06716 -1.26382
lowerback 2.89379 1.03735 0.00491588
upperback -3.49696 1.45696 1.42054
thorax -5.27724 0.75382 1.35996
lowerneck -12.2921 0.550209 9.01917
upperneck 20.1522 0.68935 -8.51129
head 8.31538 0.164596 -4.31735
rclavicle -9.95166e-015 -2.08724e-014
rhumerus -42.4984 -9.83771 -76.2241
rradius 30.0066
rwrist -7.32286
rhand -17.0126 -3.83034
rfingers 7.12502
rthumb 9.22322 -33.6086
lclavicle -9.95166e-015 -2.08724e-014
lhumerus -40.6089 -4.37038 86.9747
lradius 29.7277
lwrist 8.96758
lhand -12.3948 -0.141157
lfingers 7.12502
lthumb 13.6766 29.3895
rfemur -9.37737 -2.83759 20.6718
rtibia 31.7695
rfoot -16.4694 -22.2666
rtoes -2.68407
lfemur -8.16819 -1.96264 -16.431
ltibia 27.6219
lfoot -12.8513 18.1912
ltoes -8.35379
22
root -0.520153 17.8571 -29.5898 2.66633 2.11339 -1.25541
lowerback 2.87819 1.03654 -0.0146245
upperback -3.55597 1.4554 1.41628
thorax -5.33055 0.754078 1.36648
lowerneck -12.1451 0.550603 9.09286
upperneck 20.1252 0.699321 -8.57468
head 8.2803 0.171293 -4.34844
rclavicle -9.25591e-015 -1.98785e-016
rhumerus -42.5583 -9.71852 -76.2593
rradius 30.1692
rwrist -7.45642
rhand -17.0713 -3.85441
rfingers 7.12502
rthumb 9.16654 -33.6352
lclavicle -9.25591e-015 -1.98785e-016
lhumerus -40.7701 -4.58844 87.1564
lradius 29.6568
lwrist 8.9005
lhand -12.4771 -0.263178
lfingers 7.12502
lthumb 13.5972 29.2728
rfemur -9.35421 -2.86628 20.6595
rtibia 31.7765
rfoot -16.5142 -22.2869
rtoes -2.67308
lfemur -8.15452 -1.97723 -16.4407
ltibia 27.612
lfoot -12.8779 18.172
ltoes -8.35387
23
root -0.519027 17.8559 -29.5786 2.67617 2.15569 -1.23713
lowerback 2.87499 1.03555 -0.0498692
upperback -3.61291 1.4528 1.41191
thorax -5.3892 0.754452 1.38158
lowerneck -12.0109 0.555335 9.17194
upperneck 20.1042 0.714383 -8.6419
head 8.2501 0.18029 -4.38156
rclavicle 3.85145e-015 -7.35503e-015
rhumerus -42.6104 -9.61329 -76.2873
rradius 30.3105
rwrist -7.56322
rhand -17.1138 -3.86285
rfingers 7.12502
rthumb 9.12551 -33.6454
lclavicle 3.85145e-015 -7.35503e-015
lhumerus -40.9317 -4.83701 87.3528
lradius 29.6006
lwrist 8.84677
lhand -12.567 -0.328831
lfingers 7.12502
lthumb 13.5106 29.2129
rfemur -9.32186 -2.8921 20.6362
rtibia 31.7861
rfoot -16.5626 -22.3072
rtoes -2.65625
lfemur -8.1261 -1.99566 -16.4617
ltibia 27.5946
lfoot -12.9051 18.1618
ltoes -8.35101
24
root -0.517882 17.8546 -29.5668 2.68066 2.20627 -1.21252
lowerback 2.86851 1.02806 -0.0910472
upperback -3.64045 1.44075 1.40855
thorax -5.41505 0.750242 1.40203
lowerneck -11.9789 0.564431 9.21352
upperneck 20.1244 0.729781 -8.6774
head 8.25255 0.188101 -4.39961
rclavicle 1.49958e-014 1.21259e-014
rhumerus -42.5936 -9.53209 -76.317
rradius 30.4195
rwrist -7.63729
rhand -17.1382 -3.8523
rfingers 7.12502
rthumb 9.10195 -33.6359
lclavicle 1.49958e-014 1.21259e-014
lhumerus -41.0398 -5.09508 87.5516
lradius 29.5456
lwrist 8.75802
lhand -12.6272 -0.459568
lfingers 7.12502
lthumb 13.4525 29.086
rfemur -9.27971 -2.92744 20.6055
rtibia 31.7946
rfoot -16.6119 -22.3271
rtoes -2.63715
lfemur -8.08861 -2.02954 -16.4903
ltibia 27.574
lfoot -12.9348 18.1604
ltoes -8.33101
25
root -0.516908 17.8532 -29.555 2.68608 2.25511 -1.20268
lowerback 2.85495 1.04005 -0.102054
upperback -3.63498 1.45509 1.38903
thorax -5.40166 0.757315 1.38713
lowerneck -12.0791 0.523311 9.13477
upperneck 20.2239 0.66514 -8.58497
head 8.29775 0.159447 -4.36484
rclavicle -2.57675e-014 -2.78299e-015
rhumerus -42.5215 -9.55648 -76.3402
rradius 30.5077
rwrist -7.68231
rhand -17.1362 -3.80517
rfingers 7.12502
rthumb 9.10391 -33.5887
lclavicle -2.57675e-014 -2.78299e-015
lhumerus -41.0777 -5.44342 87.7547
lradius 29.5153
lwrist 8.67192
lhand -12.6298 -0.559656
lfingers 7.12502
lthumb 13.45 28.9861
rfemur -9.23693 -2.9531 20.5925
rtibia 31.7986
rfoot -16.6577 -22.3513
rtoes -2.61415
lfemur -8.05254 -2.06886 -16.5014
ltibia 27.5555
lfoot -12.97 18.1675
ltoes -8.30767
26
root -0.516194 17.8516 -29.5431 2.69443 2.30698 -1.21409
lowerback 2.83364 1.04845 -0.0910171
upperback -3.60689 1.46581 1.37725
thorax -5.35963 0.761738 1.36847
lowerneck -12.2681 0.485086 9.02082
upperneck 20.3691 0.60057 -8.46515
head 8.37491 0.129659 -4.31696
rclavicle -6.69656e-015 -1.23246e-014
rhumerus -42.4027 -9.58163 -76.3748
rradius 30.5918
rwrist -7.73263
rhand -17.1404 -3.77695
rfingers 7.12502
rthumb 9.09991 -33.5606
lclavicle -6.69656e-015 -1.23246e-014
lhumerus -41.0682 -5.8019 87.9573
lradius 29.4961
lwrist 8.58435
lhand -12.6014 -0.659931
lfingers 7.12502
lthumb 13.4774 28.884
rfemur -9.19633 -2.96769 20.6069
rtibia 31.7963
rfoot -16.6957 -22.3902
rtoes -2.59219
lfemur -8.02397 -2.11638 -16.4866
ltibia 27.5432
lfoot -13.0086 18.1803
ltoes -8.27728
27
root -0.5156 17.85 -29.5312 2.70527 2.36308 -1.24587
lowerback 2.80777 1.05605 -0.0527341
upperback -3.57741 1.47695 1.36722
thorax -5.31288 0.765326 1.33643
lowerneck -12.4672 0.44354 8.89743
upperneck 20.5349 0.531104 -8.334
head 8.46073 0.0981238 -4.26486
rclavicle -1.52319e-014 -8.94531e-015
rhumerus -42.2897 -9.61263 -76.4131
rradius 30.6788
rwrist -7.77944
rhand -17.1454 -3.74533
rfingers 7.12502
rthumb 9.09506 -33.5292
lclavicle -1.52319e-014 -8.94531e-015
lhumerus -41.0599 -6.18184 88.1592
lradius 29.4923
lwrist 8.49024
lhand -12.5719 -0.748611
lfingers 7.12502
lthumb 13.5059 28.7934
rfemur -9.15759 -2.97761 20.6458
rtibia 31.7891
rfoot -16.7341 -22.4358
rtoes -2.5554
lfemur -8.00118 -2.16904 -16.4478
ltibia 27.537
lfoot -13.0531 18.1939
ltoes -8.24571
28
root -0.515 17.8482 -29.5195 2.72316 2.40926 -1.2989
lowerback 2.82108 1.28394 0.143295
upperback -3.53089 1.78138 1.1485
thorax -5.26574 0.903661 0.977493
lowerneck -12.8219 0.0459851 8.57537
upperneck 20.7774 -0.0988781 -7.76366
head 8.55076 -0.17077 -4.09003
rclavicle -1.30577e-014 6.16232e-015
rhumerus -42.3322 -10.4467 -76.358
rradius 30.811
rwrist -7.76095
rhand -17.1498 -3.68579
rfingers 7.12502
rthumb 9.09077 -33.4699
lclavicle -1.30577e-014 6.16232e-015
lhumerus -40.9177 -7.41238 88.4328
lradius 29.4904
lwrist 8.49557
lhand -12.526 -0.821647
lfingers 7.12502
lthumb 13.5501 28.7175
rfemur -9.12923 -2.97034 20.7094
rtibia 31.78
rfoot -16.7733 -22.4836
rtoes -2.49848
lfemur -7.98767 -2.22184 -16.3857
ltibia 27.5342
lfoot -13.1013 18.2161
ltoes -8.21759
